# xmcd CD database file
#
# Track frame offsets:
#	150
#	14904
#	27877
#	40562
#	51053
#	62817
#	76745
#	89630
#	101774
#	114782
#	129667
#	142299
#	152542
#	165050
#	175894
#	190283
#	203191
#	215572
#	229029
#
# Disc length: 3250 seconds
#
# Revision: 0
# Processed by: cddbd v1.5.1PL0 Copyright (c) Steve Scherf et al.
# Submitted via: CDex 1.60beta1
#
DISCID=fe0cb013
DTITLE=Elmore James - The Best of the Modern Years
DYEAR=1900
DGENRE=Blues
TTITLE0=I Believe
TTITLE1=Baby What's Wrong
TTITLE2=Early in the Morning
TTITLE3=Hawaiian Boogie
TTITLE4=Strange Kinda Feeling
TTITLE5=Please Find My Baby
TTITLE6=Hand in Hand
TTITLE7=Make My Dreams Come True
TTITLE8=Sho' Nuff I Do
TTITLE9=Sunny Land
TTITLE10=Standing at the Crossroads
TTITLE11=Mean and Evil
TTITLE12=Happy Home
TTITLE13=No Love in My Heart (For You)
TTITLE14=Dust My Blues
TTITLE15=I Was a Fool, Too
TTITLE16=Blues Before Sunrise
TTITLE17=Goodbye Baby
TTITLE18=Wild About You
EXTD=
EXTT0=
EXTT1=
EXTT2=
EXTT3=
EXTT4=
EXTT5=
EXTT6=
EXTT7=
EXTT8=
EXTT9=
EXTT10=
EXTT11=
EXTT12=
EXTT13=
EXTT14=
EXTT15=
EXTT16=
EXTT17=
EXTT18=
PLAYORDER=
